<?xml version="1.0" encoding="UTF-8"?>
<!DOCTYPE svg PUBLIC "-//W3C//DTD SVG 1.1//EN" "http://www.w3.org/Graphics/SVG/1.1/DTD/svg11.dtd">
<!-- Creator: CorelDRAW 2018 (64-Bit Evaluation Version) -->
<svg xmlns="http://www.w3.org/2000/svg" xml:space="preserve" width="8.5in" height="11in" version="1.1" style="shape-rendering:geometricPrecision; text-rendering:geometricPrecision; image-rendering:optimizeQuality; fill-rule:evenodd; clip-rule:evenodd"
viewBox="0 0 8500 11000"
 xmlns:xlink="http://www.w3.org/1999/xlink">
 <defs>
  <style type="text/css">
   <![CDATA[
    .fil0 {fill:black}
   ]]>
  </style>
 </defs>
 <g id="Layer_x0020_1">
  <metadata id="CorelCorpID_0Corel-Layer"/>
  <path class="fil0" d="M6358.33 7815.85c-97.67,0 -163.93,-31.38 -237.17,-66.26l-3920.19 -1761.3c-198.81,-94.18 -355.76,-247.63 -355.76,-470.85 0,-219.73 153.47,-380.17 359.24,-470.83l3916.71 -1803.17c69.76,-34.87 132.54,-59.28 223.21,-59.28 181.37,0 310.42,125.56 310.42,310.41 0,160.43 -83.7,251.12 -230.19,320.87l-3752.8 1656.67 0 38.36 3752.8 1670.63c146.49,69.75 230.19,160.43 230.19,320.86 0,191.83 -125.57,313.9 -296.46,313.9z"/>
 </g>
</svg>
