<?xml version="1.0" encoding="UTF-8"?>
<!DOCTYPE svg PUBLIC "-//W3C//DTD SVG 1.1//EN" "http://www.w3.org/Graphics/SVG/1.1/DTD/svg11.dtd">
<!-- Creator: CorelDRAW 2018 (64-Bit Evaluation Version) -->
<svg xmlns="http://www.w3.org/2000/svg" xml:space="preserve" width="2in" height="2in" version="1.1" style="shape-rendering:geometricPrecision; text-rendering:geometricPrecision; image-rendering:optimizeQuality; fill-rule:evenodd; clip-rule:evenodd"
viewBox="0 0 2000 2000"
 xmlns:xlink="http://www.w3.org/1999/xlink">
 <defs>
  <style type="text/css">
   <![CDATA[
    .fil1 {fill:#00B0DC}
    .fil0 {fill:#00B0DC;fill-rule:nonzero}
   ]]>
  </style>
 </defs>
 <g id="Layer_x0020_1">
  <metadata id="CorelCorpID_0Corel-Layer"/>
  <g id="_1720004953664">
   <path class="fil0" d="M592.91 906.94c-179.43,-62.11 -340.2,-164.2 -471.64,-295.64 -4.82,-4.82 -9.59,-9.69 -14.33,-14.59l1.54 0c-6.29,-5.61 -12.52,-11.27 -18.69,-17 -9.77,-9.09 -19.37,-18.33 -28.82,-27.7l1878.05 0c-9.45,9.37 -19.04,18.61 -28.82,27.7 -6.16,5.73 -12.4,11.39 -18.69,17l-0.04 0c-4.74,4.91 -9.51,9.77 -14.33,14.59 -131.44,131.44 -292.2,233.53 -471.64,295.64 -5.39,-14.49 -13.22,-27.78 -22.99,-39.37 -2.94,0.99 -5.91,1.98 -8.87,2.95l8.86 -2.96c-2.46,-2.94 -5.06,-5.77 -7.78,-8.48 -23.7,-23.7 -56.28,-38.54 -92.32,-39.11l0 -44.7c48.38,0.57 92.12,20.42 123.92,52.21 7.45,7.45 14.24,15.55 20.28,24.21 150.89,-57.71 287.12,-145.08 401.55,-254.98l-1657.91 0c114.43,109.89 250.65,197.26 401.55,254.98 6.05,-8.66 12.83,-16.76 20.28,-24.21 31.79,-31.79 75.54,-51.64 123.92,-52.21l0 44.7c-36.04,0.57 -68.63,15.41 -92.33,39.11 -2.71,2.71 -5.31,5.54 -7.78,8.48l8.86 2.96c-2.96,-0.98 -5.91,-1.96 -8.86,-2.95 -9.77,11.6 -17.59,24.89 -22.99,39.37zm394.36 -670.04l153.13 142.5 125.04 -67.17 0 115.54 -275.27 0 -5.79 0 -275.27 0 0 -115.54 125.04 67.17 153.13 -142.5zm2.89 224.39l308.79 0 0 -205.06 -153.3 82.37 -158.38 -147.38 0 -0.01 1.19 -1.11 -1.2 1.11 -158.37 147.39 -153.31 -82.37 0 205.06 308.79 0 5.79 0zm-426.97 257.85l414.5 0 -0.02 290.22 0 34.72 44.65 0 0 -34.72 -0.02 -290.22 412.92 0c30.17,-13.57 59.56,-28.5 88.08,-44.7l-523.31 0 -524.89 0c28.52,16.2 57.92,31.13 88.09,44.7zm414.49 703.41l0.01 360.42 11.11 13.41 11.19 13.5 11.19 -13.5 11.11 -13.41 0.01 -360.42 -44.63 0zm188.87 -509.5l-0 96.3 -44.64 0 -0 -96.3 44.65 0zm-0.01 509.5l-0 231.51 -11.11 14.81 -11.19 14.91 -11.19 -14.91 -11.11 -14.81 -0 -231.51 44.62 0zm-273.2 -509.5l-0 96.3 -44.64 0 -0 -96.3 44.65 0zm-0.01 509.5l-0.01 231.51 -11.11 14.81 -11.2 14.91 -11.2 -14.91 -11.11 -14.81 -0.01 -231.51 44.63 0z"/>
   <path class="fil1" d="M777.58 1179.87c0,-60.56 -42.31,-99.76 -104.03,-99.76l-213.5 0 0 188.98 263.26 0c33.69,-15.26 54.27,-46.91 54.27,-89.22zm-556.87 66.18l111.96 105.78 96.65 0 -145.97 -133.93 -51.65 38.54 -11 -10.39zm208.61 -165.94l-105.97 0 -193.69 140.91 0 78.8c108.98,-79.58 189.44,-138.86 299.66,-219.7zm-325.88 271.72l0 -271.72 -59.26 0 0 271.72 59.26 0zm1755.12 0l97.23 0 0 -55.52 -97.23 0 0 -160.7 97.23 0 0 -55.51 -97.23 0 -62.96 0 0 55.51 0 160.7 0 55.52 62.96 0zm18.75 -110.63l46.79 0 0 -50.46 -46.79 0 0 50.46zm-120.99 -161.09l-333.82 0 0 58.62 110.97 0 0 -0.02 117.5 0 0 0.02 105.35 0 0 -58.62zm-201.85 85.3l0 186.42 69.87 0 0 -186.42 -69.87 0zm-165.42 186.42l77.24 0 -28.08 -54.31 5.13 9.93 -76.63 0 22.34 44.38zm65.17 -58.68l-24.02 -40.79 -302.93 0 -23.97 40.79 350.93 0zm-47.86 -57.22l-80.58 -155.82 -94.32 0 -80.36 155.82 75.25 0 52.46 -104.19 52.1 104.19 75.45 0zm-292.15 71.52l-22.89 44.38 76.85 0 22.35 -44.38 -76.31 0zm-180.15 -26.17l0 70.55 69.87 0 0 -70.55 -69.87 0zm73.93 -23.56l149.65 -177.61 -84.23 0 -104.41 123.82 -104.42 -123.82 -84.23 0 149.66 177.61 77.99 0zm-547.95 32.17l0 61.94 69.87 0 0 -61.94 -69.87 0zm188.87 0l37.43 61.94 82.29 0 -44.87 -72.35 6.45 10.41 -81.31 0zm-119 -151.16l124.21 0c20.96,0 53.57,0 53.57,41.14 0,40.76 -32.61,40.76 -53.57,40.76l-124.21 0 0 -81.9z"/>
  </g>
 </g>
</svg>
