<?xml version="1.0" encoding="UTF-8"?>
<!DOCTYPE svg PUBLIC "-//W3C//DTD SVG 1.1//EN" "http://www.w3.org/Graphics/SVG/1.1/DTD/svg11.dtd">
<!-- Creator: CorelDRAW 2018 (64-Bit Evaluation Version) -->
<svg xmlns="http://www.w3.org/2000/svg" xml:space="preserve" width="3in" height="3in" version="1.1" style="shape-rendering:geometricPrecision; text-rendering:geometricPrecision; image-rendering:optimizeQuality; fill-rule:evenodd; clip-rule:evenodd"
viewBox="0 0 3000 3000"
 xmlns:xlink="http://www.w3.org/1999/xlink">
 <defs>
  <style type="text/css">
   <![CDATA[
    .fil1 {fill:white}
    .fil0 {fill:white;fill-rule:nonzero}
   ]]>
  </style>
 </defs>
 <g id="Layer_x0020_1">
  <metadata id="CorelCorpID_0Corel-Layer"/>
  <g id="_2377171059088">
   <path class="fil0" d="M919.61 1367.33c-255.81,-88.56 -485.02,-234.11 -672.41,-421.49 -6.87,-6.87 -13.67,-13.81 -20.43,-20.8l2.2 0c-8.97,-8 -17.85,-16.07 -26.65,-24.24 -13.93,-12.96 -27.61,-26.13 -41.09,-39.49l2677.53 0c-13.48,13.36 -27.15,26.53 -41.09,39.49 -8.78,8.17 -17.68,16.24 -26.65,24.24l-0.05 0c-6.76,6.99 -13.56,13.93 -20.43,20.8 -187.39,187.39 -416.59,332.94 -672.42,421.49 -7.69,-20.65 -18.84,-39.6 -32.78,-56.13 -4.2,1.41 -8.42,2.82 -12.64,4.21l12.63 -4.22c-3.51,-4.19 -7.22,-8.22 -11.08,-12.09 -33.8,-33.78 -80.24,-54.95 -131.63,-55.76l0 -63.73c68.97,0.81 131.34,29.11 176.67,74.44 10.62,10.62 20.31,22.17 28.91,34.52 215.12,-82.28 409.35,-206.84 572.49,-363.52l-2363.67 0c163.14,156.67 357.35,281.24 572.49,363.52 8.62,-12.35 18.3,-23.9 28.91,-34.52 45.33,-45.32 107.7,-73.63 176.67,-74.44l0 63.73c-51.39,0.81 -97.84,21.98 -131.63,55.76 -3.87,3.87 -7.56,7.9 -11.08,12.09l12.63 4.22c-4.22,-1.39 -8.43,-2.8 -12.63,-4.21 -13.93,16.54 -25.08,35.48 -32.78,56.13zm562.24 -955.26l218.31 203.16 178.26 -95.77 0 164.72 -392.44 0 -8.25 0 -392.45 0 0 -164.72 178.26 95.77 218.31 -203.16zm4.13 319.91l440.24 0 0 -292.35 -218.56 117.43 -225.8 -210.12 0 -0.01 1.7 -1.58 -1.71 1.58 -225.79 210.13 -218.57 -117.43 0 292.35 440.24 0 8.25 0zm-608.73 367.62l590.95 0 -0.02 413.76 0 49.5 63.65 0 0 -49.5 -0.02 -413.76 588.7 0c43.01,-19.34 84.91,-40.63 125.58,-63.72l-746.08 0 -748.33 0c40.67,23.09 82.57,44.38 125.58,63.72zm590.94 1002.85l0.01 513.85 15.85 19.11 15.96 19.24 15.96 -19.24 15.84 -19.11 0.01 -513.85 -63.63 0zm269.27 -726.39l-0 137.3 -63.64 0 -0 -137.3 63.65 0zm-0.02 726.39l-0 330.06 -15.85 21.12 -15.96 21.26 -15.96 -21.26 -15.84 -21.12 -0.01 -330.06 63.62 0zm-389.5 -726.39l-0.01 137.3 -63.65 0 -0 -137.3 63.66 0zm-0.02 726.39l-0.01 330.06 -15.84 21.12 -15.96 21.26 -15.96 -21.26 -15.83 -21.12 -0.01 -330.06 63.62 0z"/>
   <path class="fil1" d="M1182.9 1756.43c0,-86.33 -60.33,-142.22 -148.31,-142.22l-304.37 0 0 269.42 375.32 0c48.04,-21.75 77.37,-66.88 77.37,-127.2zm-793.92 94.35l159.62 150.81 137.8 0 -208.11 -190.93 -73.63 54.94 -15.67 -14.81zm297.42 -236.58l-151.08 0 -276.15 200.89 0 112.33c155.37,-113.46 270.09,-197.97 427.23,-313.23zm-464.6 387.39l0 -387.39 -84.48 0 0 387.39 84.48 0zm2502.26 0l138.62 0 0 -79.15 -138.62 0 0 -229.1 138.62 0 0 -79.14 -138.62 0 -89.76 0 0 79.14 0 229.1 0 79.15 89.76 0zm26.73 -157.72l66.71 0 0 -71.94 -66.71 0 0 71.94zm-172.49 -229.66l-475.93 0 0 83.57 158.2 0 0 -0.02 167.52 0 0 0.02 150.2 0 0 -83.57zm-287.77 121.61l0 265.78 99.61 0 0 -265.78 -99.61 0zm-235.84 265.78l110.13 0 -40.04 -77.42 7.31 14.15 -109.26 0 31.85 63.27zm92.92 -83.66l-34.25 -58.16 -431.89 0 -34.17 58.16 500.31 0zm-68.24 -81.58l-114.89 -222.15 -134.48 0 -114.56 222.15 107.28 0 74.8 -148.54 74.28 148.54 107.57 0zm-416.52 101.96l-32.63 63.27 109.57 0 31.86 -63.27 -108.8 0zm-256.84 -37.3l0 100.57 99.61 0 0 -100.57 -99.61 0zm105.4 -33.59l213.35 -253.22 -120.09 0 -148.86 176.53 -148.87 -176.53 -120.09 0 213.36 253.22 111.19 0zm-781.2 45.86l0 88.3 99.61 0 0 -88.3 -99.61 0zm269.27 0l53.37 88.3 117.32 0 -63.96 -103.14 9.2 14.83 -115.92 0zm-169.65 -215.52l177.08 0c29.89,0 76.37,0 76.37,58.66 0,58.11 -46.48,58.11 -76.37,58.11l-177.08 0 0 -116.77z"/>
  </g>
 </g>
</svg>
